<svg width="164" height="45" viewBox="0 0 164 45" fill="none" xmlns="http://www.w3.org/2000/svg">
<path d="M43.364 35V11.4364H53.3131C53.5422 11.4364 53.8477 11.4473 54.2295 11.4691C54.6222 11.48 54.9713 11.5127 55.2768 11.5673C56.684 11.7855 57.8349 12.2491 58.7295 12.9582C59.6349 13.6673 60.3004 14.5618 60.7258 15.6418C61.1513 16.7109 61.364 17.9055 61.364 19.2255C61.364 20.5455 61.1458 21.7455 60.7095 22.8255C60.284 23.8945 59.6186 24.7836 58.7131 25.4927C57.8186 26.2018 56.6731 26.6655 55.2768 26.8836C54.9713 26.9273 54.6222 26.96 54.2295 26.9818C53.8368 27.0036 53.5313 27.0145 53.3131 27.0145H47.8149V35H43.364ZM47.8149 22.8582H53.1168C53.3458 22.8582 53.5968 22.8473 53.8695 22.8255C54.1422 22.8036 54.3931 22.76 54.6222 22.6945C55.2222 22.5309 55.6858 22.2582 56.0131 21.8764C56.3404 21.4836 56.564 21.0527 56.684 20.5836C56.8149 20.1036 56.8804 19.6509 56.8804 19.2255C56.8804 18.8 56.8149 18.3527 56.684 17.8836C56.564 17.4036 56.3404 16.9727 56.0131 16.5909C55.6858 16.1982 55.2222 15.92 54.6222 15.7564C54.3931 15.6909 54.1422 15.6473 53.8695 15.6255C53.5968 15.6036 53.3458 15.5927 53.1168 15.5927H47.8149V22.8582ZM64.6495 35V17.3273H68.5768V21.6473L68.1514 21.0909C68.3804 20.48 68.6859 19.9236 69.0677 19.4218C69.4495 18.92 69.9186 18.5055 70.475 18.1782C70.9004 17.9164 71.3641 17.7145 71.8659 17.5727C72.3677 17.42 72.8859 17.3273 73.4205 17.2945C73.955 17.2509 74.4895 17.2618 75.0241 17.3273V21.4836C74.5332 21.3309 73.9604 21.2818 73.3059 21.3364C72.6623 21.38 72.0786 21.5273 71.555 21.7782C71.0314 22.0182 70.5895 22.34 70.2295 22.7436C69.8695 23.1364 69.5968 23.6055 69.4114 24.1509C69.2259 24.6855 69.1332 25.2909 69.1332 25.9673V35H64.6495ZM85.7699 35.4909C83.9917 35.4909 82.4317 35.0927 81.0899 34.2964C79.7481 33.5 78.7008 32.4036 77.9481 31.0073C77.2062 29.6 76.8353 27.9855 76.8353 26.1636C76.8353 24.32 77.2172 22.7 77.9808 21.3036C78.7444 19.8964 79.7972 18.8 81.139 18.0145C82.4808 17.2291 84.0244 16.8364 85.7699 16.8364C87.5481 16.8364 89.1081 17.2345 90.4499 18.0309C91.8026 18.8273 92.8553 19.9291 93.6081 21.3364C94.3608 22.7327 94.7372 24.3418 94.7372 26.1636C94.7372 27.9964 94.3553 29.6164 93.5917 31.0236C92.839 32.42 91.7862 33.5164 90.4335 34.3127C89.0917 35.0982 87.5372 35.4909 85.7699 35.4909ZM85.7699 31.3345C87.199 31.3345 88.2626 30.8545 88.9608 29.8945C89.6699 28.9236 90.0244 27.68 90.0244 26.1636C90.0244 24.5927 89.6644 23.3382 88.9444 22.4C88.2353 21.4618 87.1772 20.9927 85.7699 20.9927C84.799 20.9927 84.0026 21.2109 83.3808 21.6473C82.759 22.0836 82.2953 22.6891 81.9899 23.4636C81.6953 24.2382 81.5481 25.1382 81.5481 26.1636C81.5481 27.7455 81.9026 29.0055 82.6117 29.9436C83.3317 30.8709 84.3844 31.3345 85.7699 31.3345ZM98.6629 35V11.4364H103.114V30.8436H113.259V35H98.6629ZM116.369 14.8727V10.9455H120.82V14.8727H116.369ZM116.369 35V17.3273H120.82V35H116.369ZM137.769 35V26.6545C137.769 26.2509 137.747 25.7382 137.704 25.1164C137.66 24.4836 137.524 23.8509 137.295 23.2182C137.066 22.5855 136.689 22.0564 136.166 21.6309C135.653 21.2055 134.922 20.9927 133.973 20.9927C133.591 20.9927 133.182 21.0527 132.746 21.1727C132.309 21.2927 131.9 21.5273 131.518 21.8764C131.136 22.2145 130.82 22.7164 130.569 23.3818C130.329 24.0473 130.209 24.9309 130.209 26.0327L127.656 24.8218C127.656 23.4255 127.94 22.1164 128.507 20.8945C129.075 19.6727 129.926 18.6855 131.06 17.9327C132.206 17.18 133.646 16.8036 135.38 16.8036C136.766 16.8036 137.895 17.0382 138.767 17.5073C139.64 17.9764 140.316 18.5709 140.796 19.2909C141.287 20.0109 141.636 20.7636 141.844 21.5491C142.051 22.3236 142.176 23.0327 142.22 23.6764C142.264 24.32 142.286 24.7891 142.286 25.0836V35H137.769ZM125.693 35V17.3273H129.653V23.1855H130.209V35H125.693ZM146.499 35L146.532 11.4364H151.048V25.8364L157.037 17.3273H162.535L156.153 26.1636L162.961 35H157.168L151.048 26.4909V35H146.499Z" fill="white"/>
<g clip-path="url(#clip0_807_8)">
<path d="M11.2396 37.1324L26.2121 28.6839L32.22 2.80069L20.2688 23.0557L0.1642 26.9802L11.2396 37.1324Z" fill="#2A2DD5"/>
<path d="M15.0527 43.6365L32.8914 29.2973L32.2488 2.72744L25.7341 25.3486L1.799 36.603L15.0527 43.6365Z" fill="#3E41FF"/>
</g>
<defs>
<clipPath id="clip0_807_8">
<rect width="32.7273" height="40.9091" fill="white" transform="matrix(-1 0 0 -1 32.8914 43.6365)"/>
</clipPath>
</defs>
</svg>
